<svg width="889" height="466" viewBox="0 0 889 466" fill="none" xmlns="http://www.w3.org/2000/svg">
<path d="M115.86 42.0305V15.3943H257.168V42.0305L226.017 45.6422C226.017 48.9529 226.017 52.4142 226.017 56.0258C226.017 59.3366 226.017 62.6473 226.017 65.958C254.309 66.56 277.484 71.2251 295.542 79.9534C313.902 88.3806 327.446 99.9682 336.174 114.716C345.203 129.163 349.718 145.566 349.718 163.925C349.718 194.625 339.033 218.402 317.664 235.256C296.596 252.111 266.047 261.14 226.017 262.344C226.017 266.257 226.017 270.169 226.017 274.082C226.017 277.694 226.017 281.606 226.017 285.82L257.168 289.432V316.068H115.86V289.432L147.011 286.272C147.011 282.058 147.011 277.995 147.011 274.082C147.011 270.169 147.011 266.257 147.011 262.344C106.982 261.14 76.2823 252.111 54.9131 235.256C33.5439 218.402 22.8592 194.625 22.8592 163.925C22.8592 145.265 27.3739 128.711 36.4031 114.264C45.4324 99.5167 59.1267 87.9292 77.4862 79.5019C95.8456 70.7736 119.021 66.259 147.011 65.958C147.011 62.6473 147.011 59.3366 147.011 56.0258C147.011 52.4142 147.011 48.9529 147.011 45.6422L115.86 42.0305ZM100.511 167.086C100.511 185.445 104.875 200.644 113.603 212.683C122.331 224.722 133.618 231.645 147.463 233.451C147.463 223.819 147.463 214.339 147.463 205.008C147.463 195.377 147.463 185.746 147.463 176.115V161.668C147.463 150.532 147.463 139.396 147.463 128.26C147.463 116.823 147.463 105.536 147.463 94.4001C131.511 95.604 119.623 102.526 111.797 115.167C104.273 127.507 100.511 144.813 100.511 167.086ZM225.566 175.663C225.566 185.295 225.566 194.926 225.566 204.557C225.566 214.188 225.566 223.819 225.566 233.451C239.712 231.344 250.998 224.421 259.425 212.683C267.853 200.644 272.066 185.445 272.066 167.086C272.066 145.114 268.304 127.959 260.78 115.619C253.255 102.978 241.517 95.905 225.566 94.4001C225.566 105.536 225.566 116.672 225.566 127.808C225.566 138.944 225.566 150.231 225.566 161.668V175.663Z" fill="white"/>
<path d="M543.617 313.04H312.01V269.47L395.022 170.406L316.596 40.1556V14.0138H536.279L539.948 105.281H500.506L488.123 41.5315H396.856L460.605 152.061L369.797 258.004H493.627L506.927 189.669H547.286L543.617 313.04Z" fill="white"/>
<path d="M740.627 41.0729V14.0138H847.029V41.0729L804.376 46.5764L749.341 111.243L839.232 283.229L864.457 285.98V313.04H725.951V285.98L741.544 284.146L691.554 179.579L673.667 200.676C673.667 214.434 673.667 228.193 673.667 241.952C673.667 255.711 673.82 269.47 674.126 283.229L698.892 285.98V313.04H554.883V285.98L586.528 282.77C586.834 264.425 586.987 245.927 586.987 227.276C586.987 208.319 586.987 189.516 586.987 170.865V156.189C586.987 137.538 586.987 118.887 586.987 100.236C586.987 81.5851 586.834 62.9342 586.528 44.2833L554.883 41.0729V14.0138H705.771V41.0729L674.126 44.2833C673.82 62.6284 673.667 81.1265 673.667 99.7773C673.667 118.428 673.667 137.232 673.667 156.189V164.903L769.062 46.5764L740.627 41.0729Z" fill="white"/>
<path d="M137.257 445.604C130.969 445.604 124.93 444.556 119.14 442.46C113.351 440.364 108.16 437.17 103.569 432.878C99.0771 428.585 95.5335 423.195 92.9383 416.707C90.343 410.219 89.0454 402.583 89.0454 393.799C89.0454 385.015 90.343 377.379 92.9383 370.891C95.6333 364.403 99.2268 359.012 103.719 354.72C108.21 350.428 113.351 347.234 119.14 345.138C124.93 343.042 130.969 341.994 137.257 341.994C143.546 341.994 149.585 343.042 155.374 345.138C161.164 347.234 166.304 350.428 170.796 354.72C175.288 359.012 178.831 364.403 181.427 370.891C184.122 377.379 185.469 385.015 185.469 393.799C185.469 402.583 184.172 410.219 181.576 416.707C178.981 423.195 175.388 428.585 170.796 432.878C166.304 437.17 161.164 440.364 155.374 442.46C149.585 444.556 143.546 445.604 137.257 445.604ZM137.257 436.471C141.55 436.471 144.943 434.724 147.439 431.231C150.034 427.637 151.881 422.646 152.979 416.258C154.176 409.87 154.775 402.383 154.775 393.799C154.775 385.215 154.176 377.728 152.979 371.34C151.881 364.952 150.034 359.961 147.439 356.367C144.943 352.774 141.55 350.977 137.257 350.977C133.065 350.977 129.671 352.774 127.076 356.367C124.481 359.961 122.584 364.952 121.386 371.34C120.288 377.728 119.739 385.215 119.739 393.799C119.739 402.383 120.288 409.87 121.386 416.258C122.584 422.646 124.481 427.637 127.076 431.231C129.671 434.724 133.065 436.471 137.257 436.471ZM192.271 442.61V434.974L199.159 433.327C199.259 429.733 199.309 425.94 199.309 421.948C199.309 417.855 199.309 414.262 199.309 411.167V349.63L191.223 348.132V341.395L225.361 334.657L227.906 336.304L227.307 357.116V379.126C231.3 374.434 234.943 371.29 238.237 369.693C241.631 368.096 245.424 367.297 249.617 367.297C256.304 367.297 261.794 369.443 266.087 373.736C270.479 377.928 272.675 384.117 272.675 392.302V411.167C272.675 414.361 272.675 418.005 272.675 422.097C272.675 426.19 272.725 430.033 272.824 433.626L279.113 434.974V442.61H237.639V434.974L244.077 433.477C244.177 429.883 244.227 426.04 244.227 421.948C244.227 417.855 244.227 414.262 244.227 411.167V394.248C244.227 390.156 243.777 387.311 242.879 385.714C242.08 384.117 240.433 383.318 237.938 383.318C236.441 383.318 234.794 383.817 232.997 384.815C231.3 385.714 229.553 387.011 227.757 388.708V411.167C227.757 414.262 227.757 417.905 227.757 422.097C227.757 426.19 227.807 430.083 227.906 433.776L233.596 434.974V442.61H192.271ZM285.854 442.61V434.974L292.592 433.477C292.692 429.783 292.741 425.94 292.741 421.948C292.741 417.855 292.741 414.262 292.741 411.167V403.98C292.741 399.888 292.692 396.494 292.592 393.799C292.592 391.004 292.492 388.109 292.292 385.115L284.207 383.767V377.628L318.944 367.297L321.639 368.944L321.19 391.254V411.167C321.19 414.262 321.19 417.905 321.19 422.097C321.19 426.19 321.239 430.033 321.339 433.626L327.628 434.974V442.61H285.854ZM306.666 358.463C302.873 358.463 299.629 357.266 296.934 354.87C294.239 352.375 292.891 349.28 292.891 345.587C292.891 341.794 294.239 338.7 296.934 336.304C299.629 333.908 302.873 332.71 306.666 332.71C310.459 332.71 313.703 333.908 316.398 336.304C319.093 338.7 320.441 341.794 320.441 345.587C320.441 349.28 319.093 352.375 316.398 354.87C313.703 357.266 310.459 358.463 306.666 358.463ZM373.028 445.005C364.443 445.005 357.207 443.309 351.317 439.915C345.428 436.421 340.986 431.68 337.992 425.691C334.997 419.702 333.5 413.014 333.5 405.627C333.5 398.141 335.197 391.553 338.591 385.863C341.984 380.074 346.626 375.532 352.515 372.238C358.504 368.944 365.342 367.297 373.028 367.297C380.714 367.297 387.501 368.944 393.391 372.238C399.38 375.432 404.071 379.924 407.465 385.714C410.859 391.403 412.556 398.041 412.556 405.627C412.556 413.214 411.008 420.001 407.914 425.99C404.92 431.879 400.478 436.521 394.588 439.915C388.799 443.309 381.612 445.005 373.028 445.005ZM373.028 436.771C376.322 436.771 378.717 434.375 380.215 429.584C381.812 424.792 382.61 416.957 382.61 406.077C382.61 395.196 381.812 387.411 380.215 382.719C378.717 377.928 376.322 375.532 373.028 375.532C369.734 375.532 367.288 377.928 365.691 382.719C364.194 387.411 363.445 395.196 363.445 406.077C363.445 416.957 364.194 424.792 365.691 429.584C367.288 434.375 369.734 436.771 373.028 436.771ZM485.221 445.604C479.631 445.604 473.742 445.005 467.553 443.808C461.464 442.61 456.074 440.614 451.383 437.819L452.281 415.06H468.152L471.147 433.926C475.638 435.423 480.38 436.172 485.371 436.172C490.062 436.172 493.506 434.924 495.702 432.428C497.898 429.833 498.996 426.839 498.996 423.445C498.996 419.851 498.147 417.057 496.45 415.06C494.853 413.064 492.158 411.167 488.365 409.371L481.777 406.226C472.494 401.834 465.407 397.043 460.516 391.853C455.625 386.662 453.179 379.824 453.179 371.34C453.179 362.157 456.573 354.97 463.361 349.779C470.248 344.589 479.731 341.994 491.809 341.994C497.299 341.994 502.689 342.642 507.979 343.94C513.27 345.238 517.811 347.084 521.605 349.48L520.257 371.041H504.685L501.99 353.223C498.996 352.025 495.901 351.426 492.707 351.426C489.014 351.426 485.82 352.624 483.125 355.02C480.53 357.316 479.232 360.21 479.232 363.704C479.232 367.397 480.28 370.292 482.376 372.388C484.472 374.484 487.517 376.53 491.509 378.527L498.996 382.12C505.284 385.115 510.375 388.159 514.268 391.254C518.261 394.248 521.155 397.642 522.952 401.435C524.849 405.128 525.797 409.57 525.797 414.761C525.797 420.65 524.3 425.94 521.305 430.632C518.41 435.223 513.968 438.867 507.979 441.562C501.99 444.257 494.404 445.604 485.221 445.604ZM561.577 445.005C554.19 445.005 548.451 443.309 544.358 439.915C540.266 436.421 538.22 430.682 538.22 422.696C538.22 419.802 538.22 417.156 538.22 414.761C538.319 412.265 538.369 409.57 538.369 406.675V380.922H529.835V371.041L540.016 369.693L549 348.432H566.817V369.693H580.592V380.922H566.817V421.049C566.817 424.443 567.516 426.938 568.913 428.536C570.311 430.133 572.058 430.931 574.154 430.931C576.45 430.931 578.895 429.933 581.491 427.937L585.234 431.38C583.237 435.673 580.343 439.016 576.55 441.412C572.756 443.808 567.766 445.005 561.577 445.005ZM645.734 445.005C641.042 445.005 637.249 444.107 634.355 442.31C631.56 440.414 629.513 437.769 628.216 434.375C625.321 437.569 622.376 440.164 619.382 442.161C616.487 444.057 612.345 445.005 606.955 445.005C601.065 445.005 596.324 443.309 592.731 439.915C589.237 436.521 587.49 431.78 587.49 425.691C587.49 421.798 588.339 418.354 590.035 415.36C591.832 412.265 594.927 409.47 599.319 406.975C603.81 404.38 610.099 402.034 618.184 399.938C619.382 399.638 620.779 399.289 622.376 398.89C623.974 398.391 625.621 397.941 627.317 397.542V392.152C627.317 385.764 626.569 381.372 625.072 378.976C623.674 376.58 620.63 375.383 615.938 375.383C615.539 375.383 615.14 375.383 614.74 375.383C614.441 375.383 614.092 375.383 613.692 375.383V380.473C613.692 386.562 612.445 390.904 609.949 393.5C607.454 395.995 604.609 397.243 601.415 397.243C595.326 397.243 591.533 394.548 590.035 389.157C590.035 382.669 593.08 377.429 599.169 373.436C605.358 369.344 614.491 367.297 626.569 367.297C636.95 367.297 644.237 369.593 648.429 374.185C652.721 378.677 654.867 386.063 654.867 396.344V430.632C654.867 432.329 655.716 433.177 657.413 433.177C658.011 433.177 658.61 432.977 659.209 432.578C659.808 432.079 660.557 431.181 661.455 429.883L665.797 432.279C664 436.87 661.505 440.164 658.311 442.161C655.217 444.057 651.024 445.005 645.734 445.005ZM613.243 421.049C613.243 424.742 613.992 427.487 615.489 429.284C616.986 431.081 618.833 431.979 621.029 431.979C621.728 431.979 622.476 431.83 623.275 431.53C624.173 431.131 625.521 430.332 627.317 429.134V404.579C625.82 404.979 624.373 405.528 622.975 406.226C620.879 407.224 618.733 408.921 616.537 411.317C614.341 413.713 613.243 416.957 613.243 421.049ZM698.144 445.005C690.757 445.005 685.018 443.309 680.925 439.915C676.833 436.421 674.787 430.682 674.787 422.696C674.787 419.802 674.787 417.156 674.787 414.761C674.886 412.265 674.936 409.57 674.936 406.675V380.922H666.402V371.041L676.583 369.693L685.567 348.432H703.384V369.693H717.159V380.922H703.384V421.049C703.384 424.443 704.083 426.938 705.481 428.536C706.878 430.133 708.625 430.931 710.721 430.931C713.017 430.931 715.462 429.933 718.058 427.937L721.801 431.38C719.804 435.673 716.91 439.016 713.117 441.412C709.324 443.808 704.333 445.005 698.144 445.005ZM761.357 375.383C759.061 375.383 757.114 377.079 755.517 380.473C753.92 383.867 753.022 390.206 752.822 399.489H759.859C763.453 399.489 765.849 398.79 767.046 397.392C768.344 395.895 768.993 393.25 768.993 389.457C768.993 384.266 768.194 380.623 766.597 378.527C765.1 376.431 763.353 375.383 761.357 375.383ZM761.806 445.005C754.32 445.005 747.632 443.458 741.743 440.364C735.953 437.27 731.362 432.828 727.968 427.038C724.574 421.149 722.877 414.112 722.877 405.927C722.877 399.439 724.025 393.799 726.321 389.008C728.617 384.216 731.711 380.224 735.604 377.03C739.497 373.736 743.839 371.29 748.63 369.693C753.421 368.096 758.262 367.297 763.153 367.297C770.34 367.297 776.28 368.795 780.971 371.789C785.762 374.684 789.356 378.627 791.751 383.618C794.147 388.509 795.345 393.999 795.345 400.087C795.345 401.685 795.295 403.082 795.195 404.28C795.095 405.378 794.896 406.626 794.596 408.023H752.972C753.771 415.31 755.917 420.6 759.41 423.894C763.004 427.188 766.996 428.835 771.388 428.835C775.182 428.835 778.426 428.186 781.121 426.889C783.916 425.491 786.361 423.794 788.457 421.798L794.297 427.487C791.102 433.576 786.71 438.018 781.121 440.813C775.631 443.608 769.192 445.005 761.806 445.005Z" fill="white"/>
</svg>
